# xmcd
#
# Track frame offsets:
# 150
# 14849
# 29762
# 47281
# 70695
# 89372
# 105958
# 128002
# 146741
# 164616
# 180317
# 198960
# 214396
#
# Disc length: 3086 seconds
#
#
# Revision: 0
# Processed by: cddbd v1.5.2PL0 Copyright (c) Steve Scherf et al.
# Submitted via: FreeRIP 2.951 
#
DISCID=b40c0c0d
DTITLE=Zezé di Camargo e Luciano - Diferente
DYEAR=2006
DGENRE=Sertanejo
TTITLE0=Amor que fica (Ivete Sangalo)
TTITLE1=Diz pro meu olhar
TTITLE2=Foi só engano
TTITLE3=A minha história (Chico Buarque)
TTITLE4=A saudade é uma pedra
TTITLE5=Tempo perdido
TTITLE6=Nunca mais ficar sozinho
TTITLE7=Tô com a maior moral
TTITLE8=Que seja benvinda
TTITLE9=Essa noite
TTITLE10=Olha eu aí
TTITLE11=Hey Jude
TTITLE12=How can I go on ? (Silvinha Araujo)
EXTD=
EXTT0=
EXTT1=
EXTT2=
EXTT3=
EXTT4=
EXTT5=
EXTT6=
EXTT7=
EXTT8=
EXTT9=
EXTT10=
EXTT11=
EXTT12=
PLAYORDER=
